<svg version="1.1" xmlns="http://www.w3.org/2000/svg" viewBox="0 0 2726.6666666666665 1473.333333333333" width="2726.6666666666665" height="1473.333333333333">
  <!-- svg-source:excalidraw -->
  
  <defs>
    <style class="style-fonts">
      @font-face {
        font-family: "Virgil";
        src: url("https://excalidraw.com/Virgil.woff2");
      }
      @font-face {
        font-family: "Cascadia";
        src: url("https://excalidraw.com/Cascadia.woff2");
      }
      @font-face {
        font-family: "Assistant";
        src: url("https://excalidraw.com/Assistant-Regular.woff2");
      }
    </style>
    
  </defs>
  <rect x="0" y="0" width="2726.6666666666665" height="1473.333333333333" fill="#ffffff"></rect><g stroke-linecap="round" transform="translate(643.0886904640777 100.6049938001238) rotate(0 993.1360334659158 637.6080248504918)"><path d="M32 0 C608.54 -6.24, 1186.34 -6.18, 1954.27 0 M32 0 C776.31 4.23, 1520.87 4.61, 1954.27 0 M1954.27 0 C1975.81 -0.2, 1986.54 12.33, 1986.27 32 M1954.27 0 C1975.96 0.92, 1985.46 12.83, 1986.27 32 M1986.27 32 C1990.24 363.35, 1991.1 693.98, 1986.27 1243.22 M1986.27 32 C1988.95 446.18, 1988.88 860.98, 1986.27 1243.22 M1986.27 1243.22 C1986.8 1265.33, 1976.84 1274.49, 1954.27 1275.22 M1986.27 1243.22 C1988.46 1262.47, 1975.7 1274.55, 1954.27 1275.22 M1954.27 1275.22 C1186.98 1270.1, 420.76 1269.4, 32 1275.22 M1954.27 1275.22 C1262.43 1277.26, 570.93 1277.08, 32 1275.22 M32 1275.22 C9.73 1274.04, 1.18 1263.86, 0 1243.22 M32 1275.22 C9.82 1274.38, 0.68 1265.36, 0 1243.22 M0 1243.22 C2.74 974.03, 1.77 705.38, 0 32 M0 1243.22 C-3.17 950.81, -3.34 657.45, 0 32 M0 32 C1.42 8.93, 12.55 -0.77, 32 0 M0 32 C0.86 8.68, 8.49 0.39, 32 0" stroke="#1e1e1e" stroke-width="2" fill="none"></path></g><g stroke-linecap="round" transform="translate(741.2004326249221 701.843675356083) rotate(0 183.14540375118986 139.1429366161638)"><path d="M32 0 C107.21 -1.96, 182.95 -1.49, 334.29 0 M32 0 C126.93 -0.44, 222.81 -0.73, 334.29 0 M334.29 0 C355.02 0.12, 365.73 11.48, 366.29 32 M334.29 0 C354.35 -0.35, 364.56 10.78, 366.29 32 M366.29 32 C366.42 110.25, 366.17 187.69, 366.29 246.29 M366.29 32 C364.29 84.05, 364.71 137.9, 366.29 246.29 M366.29 246.29 C365.89 268.1, 357.05 276.94, 334.29 278.29 M366.29 246.29 C364.04 267.77, 354.15 276.52, 334.29 278.29 M334.29 278.29 C274.05 276.68, 213.36 277.79, 32 278.29 M334.29 278.29 C249.56 278.87, 164.64 279.07, 32 278.29 M32 278.29 C9.23 279.41, 1.34 266.44, 0 246.29 M32 278.29 C10.35 277.23, 2.08 268.07, 0 246.29 M0 246.29 C-0.44 160.93, -0.78 74.72, 0 32 M0 246.29 C-0.47 178.85, -0.25 111.07, 0 32 M0 32 C-0.74 9.64, 9.72 -0.15, 32 0 M0 32 C0.14 10.99, 12.65 0.45, 32 0" stroke="#e03131" stroke-width="4" fill="none"></path></g><g mask="url(#mask-uBScOK1T7xVQy3Xh_flNQ)" stroke-linecap="round"><g transform="translate(919.5888129020548 832.6618208926474) rotate(0 0 0)"><path d="M0.21 0.23 C0.23 0.25, 0.19 0.38, 0.2 0.32 M-0.11 0.04 C-0.12 -0.04, -0.02 -0.16, 0.03 -0.14" stroke="#1e1e1e" stroke-width="2" fill="none"></path></g><g transform="translate(919.5888129020548 832.6618208926474) rotate(0 0 0)"><path d="M0.03 -0.14 C0.03 -0.14, 0.03 -0.14, 0.03 -0.14 M0.03 -0.14 C0.03 -0.14, 0.03 -0.14, 0.03 -0.14" stroke="#1e1e1e" stroke-width="2" fill="none"></path></g><g transform="translate(919.5888129020548 832.6618208926474) rotate(0 0 0)"><path d="M0.03 -0.14 C0.03 -0.14, 0.03 -0.14, 0.03 -0.14 M0.03 -0.14 C0.03 -0.14, 0.03 -0.14, 0.03 -0.14" stroke="#1e1e1e" stroke-width="2" fill="none"></path></g></g><mask id="mask-uBScOK1T7xVQy3Xh_flNQ"><rect x="0" y="0" fill="#fff" width="1019.5888129020548" height="932.6618208926474"></rect><rect x="790.1272345329141" y="808.412189912233" fill="#000" width="258.92315673828125" height="48.499261960829045" opacity="1"></rect></mask><g transform="translate(790.1272345329141 808.412189912233) rotate(0 129.51483134715954 24.346829528006936)"><text x="129.46157836914062" y="33.988282782149" font-family="Virgil, Segoe UI Emoji" font-size="38.799409568663236px" fill="#1e1e1e" text-anchor="middle" style="white-space: pre;" direction="ltr" dominant-baseline="alphabetic">API Gateway</text></g><g mask="url(#mask-Qj20v6efpQinei7YB6uOz)" stroke-linecap="round"><g transform="translate(312.1209692131914 794.8348268050313) rotate(0 199.02918134407543 0.49183415470685077)"><path d="M-0.13 -0.08 C66.11 0.02, 332.2 1.07, 398.61 1.33 M-1.66 -1.17 C64.36 -1.51, 331.39 -0.71, 397.95 -0.62" stroke="#1e1e1e" stroke-width="2" fill="none"></path></g><g transform="translate(312.1209692131914 794.8348268050313) rotate(0 199.02918134407543 0.49183415470685077)"><path d="M399.76 -0.51 L385.2 4.49 L384.99 -6.32 L398.75 -2.42" stroke="none" stroke-width="0" fill="#1e1e1e" fill-rule="evenodd"></path><path d="M397.95 -0.62 C392.45 2.58, 387.54 4.75, 384.34 5.69 M397.95 -0.62 C392.55 0.79, 388.67 3.35, 384.34 5.69 M384.34 5.69 C384.56 1.03, 383.37 -2.71, 384.37 -6.98 M384.34 5.69 C383.92 0.89, 384.84 -3.68, 384.37 -6.98 M384.37 -6.98 C388.29 -5.81, 394.55 -3.26, 397.95 -0.62 M384.37 -6.98 C387.79 -5.21, 391.3 -4.61, 397.95 -0.62 M397.95 -0.62 C397.95 -0.62, 397.95 -0.62, 397.95 -0.62 M397.95 -0.62 C397.95 -0.62, 397.95 -0.62, 397.95 -0.62" stroke="#1e1e1e" stroke-width="2" fill="none"></path></g></g><mask id="mask-Qj20v6efpQinei7YB6uOz"><rect x="0" y="0" fill="#fff" width="810.1793319013423" height="895.818495114445"></rect><rect x="470.056156416642" y="772.8266609597381" fill="#000" width="82.18798828125" height="45" opacity="1"></rect></mask><g transform="translate(470.0561564166419 772.826660959738) rotate(0 40.54184415603987 22.04618946239367)"><text x="41.093994140625" y="31.536" font-family="Virgil, Segoe UI Emoji" font-size="36px" fill="#1e1e1e" text-anchor="middle" style="white-space: pre;" direction="ltr" dominant-baseline="alphabetic">Auth</text></g><g transform="translate(68.13219825609195 780.3836452762378) rotate(0 116.63995361328122 45)"><text x="0" y="31.536" font-family="Virgil, Segoe UI Emoji" font-size="36px" fill="#1e1e1e" text-anchor="start" style="white-space: pre;" direction="ltr" dominant-baseline="alphabetic">User auth</text><text x="0" y="76.536" font-family="Virgil, Segoe UI Emoji" font-size="36px" fill="#1e1e1e" text-anchor="start" style="white-space: pre;" direction="ltr" dominant-baseline="alphabetic">User request</text></g><g stroke-linecap="round"><g transform="translate(866.9992724638375 687.6650964126893) rotate(0 -0.48654206448236437 -103.34825439823277)"><path d="M1 -0.88 C0.5 -35.53, -1.49 -173.46, -1.9 -207.67 M0.07 1.27 C-0.15 -33.27, 0.74 -171.74, 0.32 -206.65" stroke="#1e1e1e" stroke-width="2" fill="none"></path></g><g transform="translate(866.9992724638375 687.6650964126893) rotate(0 -0.48654206448236437 -103.34825439823277)"><path d="M1.5 -204.87 L4.72 -192.85 L-5.7 -191.93 L0.01 -207.42" stroke="none" stroke-width="0" fill="#1e1e1e" fill-rule="evenodd"></path><path d="M0.32 -206.65 C1.72 -202.56, 4.09 -196.68, 6.68 -193.06 M0.32 -206.65 C3.2 -202.47, 4.98 -197.76, 6.68 -193.06 M6.68 -193.06 C3.27 -193.16, -0.74 -193.7, -5.99 -193.04 M6.68 -193.06 C3.22 -192.65, 0.52 -192.61, -5.99 -193.04 M-5.99 -193.04 C-2.59 -196.42, -1.78 -201.79, 0.32 -206.65 M-5.99 -193.04 C-3.16 -198.65, -1.16 -203.27, 0.32 -206.65 M0.32 -206.65 C0.32 -206.65, 0.32 -206.65, 0.32 -206.65 M0.32 -206.65 C0.32 -206.65, 0.32 -206.65, 0.32 -206.65" stroke="#1e1e1e" stroke-width="2" fill="none"></path></g></g><mask></mask><g stroke-linecap="round"><g transform="translate(968.4011201500145 482.82058097122354) rotate(0 0.5826367415357936 104.80076945776113)"><path d="M-0.06 0.43 C0.23 35.7, 0.83 175.64, 1.19 210.51 M-1.56 -0.39 C-1.37 34.65, -0.31 173.64, 0.26 208.87" stroke="#1e1e1e" stroke-width="2" fill="none"></path></g><g transform="translate(968.4011201500145 482.82058097122354) rotate(0 0.5826367415357936 104.80076945776113)"><path d="M-0.29 210.12 L-6.22 194.87 L6.44 196.54 L-1.35 209.72" stroke="none" stroke-width="0" fill="#1e1e1e" fill-rule="evenodd"></path><path d="M0.26 208.87 C-0.72 205.48, -1.76 203.22, -6.23 195.34 M0.26 208.87 C-2.32 205.3, -3.63 200.25, -6.23 195.34 M-6.23 195.34 C-2.61 195.88, -0.01 196.6, 6.44 195.2 M-6.23 195.34 C-1.76 194.58, 3.49 195.26, 6.44 195.2 M6.44 195.2 C4.59 197.31, 2.75 201.52, 0.26 208.87 M6.44 195.2 C3.9 198.77, 2.9 203.31, 0.26 208.87 M0.26 208.87 C0.26 208.87, 0.26 208.87, 0.26 208.87 M0.26 208.87 C0.26 208.87, 0.26 208.87, 0.26 208.87" stroke="#1e1e1e" stroke-width="2" fill="none"></path></g></g><mask></mask><g transform="translate(737.1045122294729 541.3181189407265) rotate(0 47.84397888183594 45)"><text x="0" y="31.536" font-family="Virgil, Segoe UI Emoji" font-size="36px" fill="#1e1e1e" text-anchor="start" style="white-space: pre;" direction="ltr" dominant-baseline="alphabetic">Basic</text><text x="0" y="76.536" font-family="Virgil, Segoe UI Emoji" font-size="36px" fill="#1e1e1e" text-anchor="start" style="white-space: pre;" direction="ltr" dominant-baseline="alphabetic">Auth</text></g><g transform="translate(986.8482446174594 551.4610466454543) rotate(0 39.311988830566406 22.5)"><text x="0" y="31.536" font-family="Virgil, Segoe UI Emoji" font-size="36px" fill="#1e1e1e" text-anchor="start" style="white-space: pre;" direction="ltr" dominant-baseline="alphabetic">JWT</text></g><g stroke-linecap="round"><g transform="translate(1131.9374605761946 840.865232047747) rotate(0 155.0682180781887 3.013606500317735)"><path d="M-0.45 1.1 C51.54 2.22, 259.55 6.49, 311.13 7.17 M1.52 0.63 C53.5 1.41, 259.06 4.74, 310.71 5.65" stroke="#1e1e1e" stroke-width="2" fill="none"></path></g><g transform="translate(1131.9374605761946 840.865232047747) rotate(0 155.0682180781887 3.013606500317735)"><path d="M309.47 3.7 L297.6 12.59 L296.05 -0.19 L310.77 5.49" stroke="none" stroke-width="0" fill="#1e1e1e" fill-rule="evenodd"></path><path d="M310.71 5.65 C308.86 8.3, 305.66 7.18, 297.01 11.76 M310.71 5.65 C308.26 7.53, 303.9 8.35, 297.01 11.76 M297.01 11.76 C295.89 7.63, 297.84 4.17, 297.22 -0.92 M297.01 11.76 C296.91 7.71, 297.67 4.52, 297.22 -0.92 M297.22 -0.92 C300.65 0.01, 305.35 2.58, 310.71 5.65 M297.22 -0.92 C300.87 0.32, 305.26 2.78, 310.71 5.65 M310.71 5.65 C310.71 5.65, 310.71 5.65, 310.71 5.65 M310.71 5.65 C310.71 5.65, 310.71 5.65, 310.71 5.65" stroke="#1e1e1e" stroke-width="2" fill="none"></path></g></g><mask></mask><g stroke-linecap="round" transform="translate(764.0263487804161 199.14116310159892) rotate(0 153.41400703833426 143.49088503356276)"><path d="M192.5 36 C221.61 62.01, 248.93 89.83, 268.33 108 M192.5 36 C216.13 58.51, 240.08 81.73, 268.33 108 M268.33 108 C307.87 145.61, 306.2 143.08, 268.33 180 M268.33 108 C306.21 144.05, 307.69 145.08, 268.33 180 M268.33 180 C251.73 196.16, 235.87 211.11, 192.5 250.98 M268.33 180 C238.42 208.14, 208.34 237.38, 192.5 250.98 M192.5 250.98 C154.93 287.97, 152.45 287.84, 115.5 250.98 M192.5 250.98 C154.87 287.05, 155.48 288.24, 115.5 250.98 M115.5 250.98 C85.14 221.55, 56.78 194.89, 38.5 180 M115.5 250.98 C95.47 231.95, 77.35 214.1, 38.5 180 M38.5 180 C1.27 145.62, 0.28 142.61, 38.5 108 M38.5 180 C1.09 143.58, 0.34 145.91, 38.5 108 M38.5 108 C62.42 86.6, 89.45 62.15, 115.5 36 M38.5 108 C60.43 85.87, 82.88 64.27, 115.5 36 M115.5 36 C153.93 -1.11, 154.18 1.86, 192.5 36 M115.5 36 C152.45 -1.68, 155.84 0.87, 192.5 36" stroke="#1971c2" stroke-width="4" fill="none"></path></g><g transform="translate(851.7558513840559 293.88734365755124) rotate(0 65.47750091552734 48.499261960829045)"><text x="65.47750091552734" y="33.988282782149" font-family="Virgil, Segoe UI Emoji" font-size="38.799409568663236px" fill="#1971c2" text-anchor="middle" style="white-space: pre;" direction="ltr" dominant-baseline="alphabetic">Auth</text><text x="65.47750091552734" y="82.48754474297805" font-family="Virgil, Segoe UI Emoji" font-size="38.799409568663236px" fill="#1971c2" text-anchor="middle" style="white-space: pre;" direction="ltr" dominant-baseline="alphabetic">Service</text></g><g stroke-linecap="round" transform="translate(1480.0109433286452 426.17339079307465) rotate(0 213.19128639016503 248.68213588818196)"><path d="M32 0 C163.43 -0.34, 293.35 -0.06, 394.38 0 M32 0 C167.44 0.72, 303.3 -0.23, 394.38 0 M394.38 0 C416.38 -1.23, 424.59 11.37, 426.38 32 M394.38 0 C417.36 2.18, 426.37 10.74, 426.38 32 M426.38 32 C426.77 187.95, 426.83 343.3, 426.38 465.36 M426.38 32 C427.34 130.41, 427.16 229.51, 426.38 465.36 M426.38 465.36 C426.04 485.91, 415 497.2, 394.38 497.36 M426.38 465.36 C424.09 488.83, 417.08 495.28, 394.38 497.36 M394.38 497.36 C268.73 497.39, 141.85 497.77, 32 497.36 M394.38 497.36 C250.87 499.02, 106.79 499.31, 32 497.36 M32 497.36 C9.89 496.07, -1.64 485.73, 0 465.36 M32 497.36 C11.52 495.59, -0.22 485.25, 0 465.36 M0 465.36 C1.68 314.71, 1.61 165.33, 0 32 M0 465.36 C-1.56 350.05, -2.37 234.58, 0 32 M0 32 C-0.51 11.71, 8.97 -1.23, 32 0 M0 32 C-0.72 9.21, 11.36 1.37, 32 0" stroke="#f08c00" stroke-width="4" fill="none"></path></g><g transform="translate(1547.4070484443962 606.9565599360959) rotate(0 145.79518127441418 67.89896674516064)"><text x="145.79518127441406" y="47.58359589500859" font-family="Virgil, Segoe UI Emoji" font-size="54.319173396128534px" fill="#f08c00" text-anchor="middle" style="white-space: pre;" direction="ltr" dominant-baseline="alphabetic">Queue </text><text x="145.79518127441406" y="115.48256264016925" font-family="Virgil, Segoe UI Emoji" font-size="54.319173396128534px" fill="#f08c00" text-anchor="middle" style="white-space: pre;" direction="ltr" dominant-baseline="alphabetic">(RabbitMQ)</text></g><g stroke-linecap="round" transform="translate(1243.307109905464 229.60671836078785) rotate(0 72.48226989441173 98.17218833800067)"><path d="M32 0 C55.72 1.98, 77.26 2.58, 112.96 0 M32 0 C58.89 1.25, 87.33 0.87, 112.96 0 M112.96 0 C132.9 1.83, 145.16 11.56, 144.96 32 M112.96 0 C134.96 1.11, 145.7 12.51, 144.96 32 M144.96 32 C144.8 64.28, 147.92 93.74, 144.96 164.34 M144.96 32 C143.02 72.36, 143.8 114.46, 144.96 164.34 M144.96 164.34 C146.72 186.64, 133.77 198.13, 112.96 196.34 M144.96 164.34 C144.36 185.72, 133.87 197.78, 112.96 196.34 M112.96 196.34 C86.23 197.97, 60.09 194.4, 32 196.34 M112.96 196.34 C88 197.4, 64.74 197.7, 32 196.34 M32 196.34 C11.6 196.91, -0.1 186.27, 0 164.34 M32 196.34 C11.97 196.67, -0.18 186.57, 0 164.34 M0 164.34 C0.94 131.89, -0.5 99.83, 0 32 M0 164.34 C-0.36 113.23, 0.73 64.36, 0 32 M0 32 C1.17 11.56, 11.17 -1, 32 0 M0 32 C-1.5 9.17, 11.44 -1.88, 32 0" stroke="#2f9e44" stroke-width="4" fill="none"></path></g><g transform="translate(1271.5106169824928 279.2796447379595) rotate(0 44.27876281738281 48.499261960829045)"><text x="44.27876281738281" y="33.988282782149" font-family="Virgil, Segoe UI Emoji" font-size="38.799409568663236px" fill="#2f9e44" text-anchor="middle" style="white-space: pre;" direction="ltr" dominant-baseline="alphabetic">Auth</text><text x="44.27876281738281" y="82.48754474297805" font-family="Virgil, Segoe UI Emoji" font-size="38.799409568663236px" fill="#2f9e44" text-anchor="middle" style="white-space: pre;" direction="ltr" dominant-baseline="alphabetic">DB</text></g><g stroke-linecap="round" transform="translate(1244.9321514722237 227.5617715784636) rotate(0 68.81228154532766 22.93742718177583)"><path d="M46.01 1.54 C56.01 -0.03, 70.52 -0.03, 81.88 0.48 C93.25 0.99, 105.48 2.13, 114.22 4.6 C122.95 7.06, 130.6 11.37, 134.3 15.26 C138 19.15, 138.7 24.06, 136.4 27.93 C134.1 31.8, 127.92 35.84, 120.5 38.5 C113.08 41.16, 102.42 42.56, 91.87 43.88 C81.33 45.19, 68.55 47.04, 57.24 46.41 C45.93 45.77, 33.04 42.77, 24.01 40.07 C14.97 37.37, 6.76 33.74, 3.02 30.21 C-0.72 26.68, -0.8 22.62, 1.57 18.9 C3.94 15.17, 8.48 10.92, 17.25 7.86 C26.03 4.8, 46.28 1.62, 54.25 0.53 C62.21 -0.57, 64.67 0.91, 65.06 1.3 M74.22 0.7 C85.39 0.61, 99.59 0.95, 109.16 2.97 C118.74 4.99, 127.19 9.04, 131.7 12.81 C136.21 16.58, 137.33 21.71, 136.23 25.59 C135.14 29.47, 131.22 32.97, 125.12 36.1 C119.03 39.22, 109.72 42.63, 99.67 44.33 C89.61 46.03, 76.45 46.6, 64.77 46.31 C53.08 46.01, 39.11 44.56, 29.54 42.55 C19.96 40.53, 12.1 37.68, 7.3 34.23 C2.49 30.77, -0.02 25.96, 0.71 21.84 C1.43 17.72, 5.05 12.63, 11.63 9.53 C18.22 6.42, 29.95 4.84, 40.22 3.21 C50.5 1.57, 67.81 0.3, 73.29 -0.26 C78.77 -0.83, 73.22 -0.5, 73.11 -0.18" stroke="#2f9e44" stroke-width="4" fill="none"></path></g><g stroke-linecap="round" transform="translate(1249.6246132124702 382.9337082389418) rotate(0 68.81228154532766 22.93742718177583)"><path d="M85.41 1.31 C96.09 1.85, 108.52 4.89, 116.79 7.31 C125.05 9.73, 132 12.13, 135 15.83 C137.99 19.53, 137.58 25.81, 134.78 29.51 C131.98 33.21, 125.99 35.5, 118.2 38.04 C110.41 40.57, 99.09 43.57, 88.02 44.71 C76.94 45.84, 62.96 45.64, 51.75 44.84 C40.55 44.04, 28.89 42.51, 20.78 39.91 C12.68 37.31, 6.18 33.01, 3.13 29.25 C0.09 25.49, -0.35 21.09, 2.53 17.34 C5.41 13.58, 12.63 9.46, 20.4 6.71 C28.17 3.96, 36.41 1.54, 49.16 0.84 C61.91 0.13, 87.17 1.96, 96.9 2.49 C106.63 3.02, 107.82 3.77, 107.53 4.01 M38.59 2.44 C47.91 0.73, 62.44 -0.63, 74.04 -0.12 C85.65 0.4, 98.54 3.43, 108.22 5.51 C117.91 7.59, 127.29 9.04, 132.15 12.36 C137.02 15.68, 138.38 21.78, 137.41 25.45 C136.44 29.13, 132.57 31.44, 126.34 34.41 C120.1 37.38, 110.58 41.3, 100.02 43.27 C89.45 45.25, 74.68 46.42, 62.97 46.25 C51.26 46.08, 39.08 44.29, 29.74 42.26 C20.4 40.22, 12.01 37.61, 6.93 34.04 C1.85 30.48, -1.33 25.08, -0.73 20.88 C-0.13 16.69, 3.82 11.84, 10.55 8.87 C17.27 5.9, 34.64 4.17, 39.62 3.08 C44.6 1.98, 40.04 2.35, 40.41 2.3" stroke="#2f9e44" stroke-width="4" fill="none"></path></g><g stroke-linecap="round"><g transform="translate(1094.709730966313 321.23147153208583) rotate(0 61.393678780921846 0)"><path d="M0.81 1.1 C21.16 0.73, 101.39 -0.84, 121.72 -1.11 M-0.22 0.64 C20.52 0.89, 103.49 -0.14, 123.87 -0.15" stroke="#1e1e1e" stroke-width="2" fill="none"></path></g><g transform="translate(1094.709730966313 321.23147153208583) rotate(0 61.393678780921846 0)"><path d="M125.38 -0.05 L109.03 7.58 L111.37 -7 L123.2 -0.59" stroke="none" stroke-width="0" fill="#1e1e1e" fill-rule="evenodd"></path><path d="M123.87 -0.15 C121.7 0.31, 115.33 3.36, 110.32 6.28 M123.87 -0.15 C121.01 0.96, 117.16 3.76, 110.32 6.28 M110.32 6.28 C109.33 2.29, 111.18 -0.57, 110.23 -6.4 M110.32 6.28 C110.59 1.28, 110.88 -4.01, 110.23 -6.4 M110.23 -6.4 C115.85 -4.92, 119.65 -0.88, 123.87 -0.15 M110.23 -6.4 C112.71 -5.58, 115.79 -3.74, 123.87 -0.15 M123.87 -0.15 C123.87 -0.15, 123.87 -0.15, 123.87 -0.15 M123.87 -0.15 C123.87 -0.15, 123.87 -0.15, 123.87 -0.15" stroke="#1e1e1e" stroke-width="2" fill="none"></path></g></g><mask></mask><g stroke-linecap="round"><g transform="translate(1221.6046630126198 377.179719120096) rotate(0 -63.26270156785495 0)"><path d="M-0.76 1.14 C-21.88 1.29, -106.02 1.05, -126.82 0.68 M1.04 0.69 C-20.25 0.52, -106.78 -0.91, -127.92 -1.09" stroke="#1e1e1e" stroke-width="2" fill="none"></path></g><g transform="translate(1221.6046630126198 377.179719120096) rotate(0 -63.26270156785495 0)"><path d="M-127.38 -1.19 L-112.97 -8.63 L-115.6 5.69 L-129.54 -2.42" stroke="none" stroke-width="0" fill="#1e1e1e" fill-rule="evenodd"></path><path d="M-127.92 -1.09 C-122.5 -3.16, -119.09 -3.36, -114.24 -7.25 M-127.92 -1.09 C-124.57 -1.66, -121.64 -4.21, -114.24 -7.25 M-114.24 -7.25 C-115.31 -3.7, -115.47 -0.69, -114.4 5.43 M-114.24 -7.25 C-114.23 -1.75, -114.92 2.2, -114.4 5.43 M-114.4 5.43 C-119.13 2.91, -122.08 3.76, -127.92 -1.09 M-114.4 5.43 C-116.98 4.12, -120.27 2.28, -127.92 -1.09 M-127.92 -1.09 C-127.92 -1.09, -127.92 -1.09, -127.92 -1.09 M-127.92 -1.09 C-127.92 -1.09, -127.92 -1.09, -127.92 -1.09" stroke="#1e1e1e" stroke-width="2" fill="none"></path></g></g><mask></mask><g stroke-linecap="round" transform="translate(2219.851848710038 677.696860088) rotate(0 152.58413428253994 152.58413428253994)"><path d="M32 0 C94.3 -1.5, 155.78 0.59, 273.17 0 M32 0 C83.79 -0.21, 135.84 -0.2, 273.17 0 M273.17 0 C293.38 -0.24, 307.08 9.5, 305.17 32 M273.17 0 C293.16 1.79, 306.34 10, 305.17 32 M305.17 32 C303.61 118.21, 304.24 206.72, 305.17 273.17 M305.17 32 C304.85 102, 304.74 170.95, 305.17 273.17 M305.17 273.17 C304.34 293.06, 295.85 305.32, 273.17 305.17 M305.17 273.17 C307.2 295.57, 294.24 305.69, 273.17 305.17 M273.17 305.17 C189.2 304.51, 105.35 303.84, 32 305.17 M273.17 305.17 C192.84 302.92, 111.49 302.6, 32 305.17 M32 305.17 C12.32 306.05, 1.72 292.81, 0 273.17 M32 305.17 C10.89 306.65, -2.25 296.65, 0 273.17 M0 273.17 C-0.74 208.72, -0.17 143.43, 0 32 M0 273.17 C-0.32 206.39, 0.12 140, 0 32 M0 32 C-1 11, 9.81 -1, 32 0 M0 32 C-0.49 11.34, 11.22 2.29, 32 0" stroke="#1971c2" stroke-width="4" fill="none"></path></g><g transform="translate(2252.3421948456057 781.7817324097109) rotate(0 120.09378814697266 48.49926196082902)"><text x="120.09378814697266" y="33.988282782149" font-family="Virgil, Segoe UI Emoji" font-size="38.799409568663236px" fill="#1971c2" text-anchor="middle" style="white-space: pre;" direction="ltr" dominant-baseline="alphabetic">mp4 to mp3 </text><text x="120.09378814697266" y="82.48754474297805" font-family="Virgil, Segoe UI Emoji" font-size="38.799409568663236px" fill="#1971c2" text-anchor="middle" style="white-space: pre;" direction="ltr" dominant-baseline="alphabetic">service</text></g><g stroke-linecap="round"><g transform="translate(1968.305797028454 801.1795267091248) rotate(0 113.8740870139186 0)"><path d="M-0.7 -0.56 C37.12 -0.75, 188.92 -1.04, 227.06 -1.09 M1.13 1.77 C39.34 1.68, 191.67 0.16, 229.41 -0.12" stroke="#1e1e1e" stroke-width="2" fill="none"></path></g><g transform="translate(1968.305797028454 801.1795267091248) rotate(0 113.8740870139186 0)"><path d="M229.34 0.18 L216.6 6.12 L215.26 -7.65 L229.87 1.07" stroke="none" stroke-width="0" fill="#1e1e1e" fill-rule="evenodd"></path><path d="M229.41 -0.12 C224.53 0.94, 219.66 4.3, 215.87 6.34 M229.41 -0.12 C226.5 1.87, 222.62 2.35, 215.87 6.34 M215.87 6.34 C216.98 2.93, 215.97 -1.99, 215.76 -6.34 M215.87 6.34 C215.99 3.9, 216.18 1.7, 215.76 -6.34 M215.76 -6.34 C219.74 -5.89, 221.23 -3.47, 229.41 -0.12 M215.76 -6.34 C218.93 -4.94, 222.48 -2.97, 229.41 -0.12 M229.41 -0.12 C229.41 -0.12, 229.41 -0.12, 229.41 -0.12 M229.41 -0.12 C229.41 -0.12, 229.41 -0.12, 229.41 -0.12" stroke="#1e1e1e" stroke-width="2" fill="none"></path></g></g><mask></mask><g stroke-linecap="round"><g transform="translate(2203.6727732448526 857.1277742971353) rotate(0 -117.340783711305 0)"><path d="M-0.69 -1.09 C-39.62 -1.14, -195.46 -1.14, -234.28 -0.83 M1.15 0.95 C-37.84 1.09, -195.86 0.63, -235.02 0.27" stroke="#1e1e1e" stroke-width="2" fill="none"></path></g><g transform="translate(2203.6727732448526 857.1277742971353) rotate(0 -117.340783711305 0)"><path d="M-234.3 0.05 L-221.89 -7.3 L-221 7.87 L-235.55 0.85" stroke="none" stroke-width="0" fill="#1e1e1e" fill-rule="evenodd"></path><path d="M-235.02 0.27 C-233.06 -0.67, -229.44 -1.31, -221.39 -6 M-235.02 0.27 C-230.72 -2.65, -224.84 -4.04, -221.39 -6 M-221.39 -6 C-221.07 -1.62, -222.48 2.87, -221.46 6.68 M-221.39 -6 C-220.89 -1.97, -221.85 1.22, -221.46 6.68 M-221.46 6.68 C-226.82 4.54, -231.89 2.85, -235.02 0.27 M-221.46 6.68 C-224.17 5.64, -228.82 3.72, -235.02 0.27 M-235.02 0.27 C-235.02 0.27, -235.02 0.27, -235.02 0.27 M-235.02 0.27 C-235.02 0.27, -235.02 0.27, -235.02 0.27" stroke="#1e1e1e" stroke-width="2" fill="none"></path></g></g><mask></mask><g transform="translate(1187.8284328889492 155.95184318647011) rotate(0 125.51601003030476 24.24963098041451)"><text x="0" y="33.988282782149" font-family="Virgil, Segoe UI Emoji" font-size="38.799409568663236px" fill="#1e1e1e" text-anchor="start" style="white-space: pre;" direction="ltr" dominant-baseline="alphabetic">SQL - MySQL</text></g><g stroke-linecap="round" transform="translate(2276.9000235081953 266.59730316468085) rotate(0 88.38770934726904 93.43277005040261)"><path d="M32 0 C59.05 -1.08, 83.56 -1.92, 144.78 0 M32 0 C56.54 -0.31, 83.33 -0.25, 144.78 0 M144.78 0 C167.1 1.55, 175.95 11.06, 176.78 32 M144.78 0 C168.23 1.01, 177.4 12.78, 176.78 32 M176.78 32 C175.8 65.34, 175.42 97.63, 176.78 154.87 M176.78 32 C176.59 64.08, 176.26 95.26, 176.78 154.87 M176.78 154.87 C177.36 175.64, 165.12 188.84, 144.78 186.87 M176.78 154.87 C174.99 177.14, 168.19 187.35, 144.78 186.87 M144.78 186.87 C99.94 187.83, 58.32 187.32, 32 186.87 M144.78 186.87 C101.62 186.75, 58.67 186.02, 32 186.87 M32 186.87 C9.66 188.33, 0.94 177.57, 0 154.87 M32 186.87 C9.6 189.13, 0 174.96, 0 154.87 M0 154.87 C-0.52 110.68, 1.14 67.28, 0 32 M0 154.87 C-0.18 114.03, -0.48 74.45, 0 32 M0 32 C-1.89 10.44, 10.94 -1.18, 32 0 M0 32 C0.58 8.94, 12.41 -0.77, 32 0" stroke="#2f9e44" stroke-width="4" fill="none"></path></g><g transform="translate(2293.810636297847 313.8721901413255) rotate(0 71.47709655761719 46.157883073757944)"><text x="71.47709655761719" y="32.34744445808957" font-family="Virgil, Segoe UI Emoji" font-size="36.92630645900636px" fill="#2f9e44" text-anchor="middle" style="white-space: pre;" direction="ltr" dominant-baseline="alphabetic">Storage</text><text x="71.47709655761719" y="78.50532753184751" font-family="Virgil, Segoe UI Emoji" font-size="36.92630645900636px" fill="#2f9e44" text-anchor="middle" style="white-space: pre;" direction="ltr" dominant-baseline="alphabetic">DB</text></g><g stroke-linecap="round" transform="translate(2278.446613612785 264.6510794356101) rotate(0 85.84922188078099 21.830086460374417)"><path d="M58.72 1.6 C70.25 0.49, 86.54 0.38, 99.72 0.76 C112.91 1.14, 127.21 1.81, 137.82 3.89 C148.43 5.98, 157.7 10.12, 163.41 13.29 C169.12 16.45, 172.43 19.69, 172.08 22.86 C171.74 26.03, 167.97 29.57, 161.35 32.32 C154.73 35.06, 143.81 37.42, 132.35 39.34 C120.89 41.25, 106.02 43.38, 92.6 43.8 C79.18 44.22, 64.05 43.2, 51.82 41.88 C39.58 40.56, 27.4 38.55, 19.2 35.89 C10.99 33.24, 5.1 29.38, 2.57 25.92 C0.05 22.47, 0.42 18.3, 4.03 15.16 C7.65 12.02, 14.74 9.55, 24.26 7.09 C33.77 4.63, 54.15 1.53, 61.11 0.41 C68.07 -0.72, 65.49 -0.26, 66.02 0.33 M94.44 -1.24 C107.09 -1.32, 123.21 1.08, 134.44 3.38 C145.66 5.68, 155.73 9.7, 161.79 12.54 C167.85 15.37, 170.83 17.02, 170.79 20.39 C170.76 23.75, 167.68 29.54, 161.58 32.74 C155.49 35.93, 145.03 37.6, 134.24 39.57 C123.44 41.54, 109.6 43.92, 96.79 44.55 C83.98 45.19, 69.89 44.48, 57.39 43.39 C44.89 42.31, 30.9 40.84, 21.81 38.04 C12.72 35.24, 5.97 30.1, 2.83 26.58 C-0.3 23.06, -0.21 20.14, 3 16.91 C6.21 13.68, 13.66 9.63, 22.11 7.2 C30.55 4.78, 41.62 3.49, 53.69 2.37 C65.76 1.26, 87.63 0.83, 94.54 0.5 C101.45 0.18, 95.2 0.32, 95.16 0.41" stroke="#2f9e44" stroke-width="4" fill="none"></path></g><g stroke-linecap="round" transform="translate(2282.91253931098 412.52218912610266) rotate(0 82.6681339902093 21.830086460374417)"><path d="M47.07 2.69 C57.52 0.86, 73.22 -0.58, 85.96 -0.4 C98.7 -0.23, 112.4 1.96, 123.5 3.74 C134.59 5.52, 145.47 7.62, 152.54 10.26 C159.61 12.89, 164.8 16.36, 165.92 19.54 C167.04 22.71, 164.42 26.1, 159.26 29.31 C154.09 32.52, 144.96 36.53, 134.95 38.82 C124.94 41.12, 111.68 42.39, 99.18 43.09 C86.69 43.79, 72.07 43.98, 59.99 43.02 C47.92 42.06, 35.85 39.8, 26.73 37.33 C17.61 34.87, 9.48 31.31, 5.29 28.23 C1.1 25.15, -0.16 22.14, 1.59 18.83 C3.35 15.53, 6.79 11.44, 15.82 8.39 C24.84 5.34, 47.68 1.58, 55.73 0.51 C63.78 -0.57, 63.77 1.33, 64.1 1.94 M91.99 -0.18 C104.37 0.25, 118.5 3.05, 128.87 4.79 C139.24 6.52, 148.29 7.27, 154.21 10.21 C160.13 13.16, 164.27 18.92, 164.42 22.48 C164.56 26.04, 160.81 28.54, 155.1 31.57 C149.4 34.6, 140.21 38.5, 130.18 40.65 C120.16 42.8, 107.6 43.94, 94.93 44.48 C82.26 45.01, 66.35 45.31, 54.17 43.86 C41.99 42.42, 30.29 38.55, 21.87 35.81 C13.44 33.07, 6.69 30.63, 3.62 27.43 C0.55 24.23, 0.83 19.76, 3.44 16.61 C6.05 13.45, 11.27 10.95, 19.29 8.5 C27.31 6.06, 39.51 3.38, 51.55 1.96 C63.59 0.53, 84.92 0.41, 91.53 -0.03 C98.14 -0.48, 91.45 -1, 91.21 -0.72" stroke="#2f9e44" stroke-width="4" fill="none"></path></g><g transform="translate(2196.939001451936 180.5364163109848) rotate(0 172.07525711030007 24.24963098041451)"><text x="0" y="33.988282782149" font-family="Virgil, Segoe UI Emoji" font-size="38.799409568663236px" fill="#1e1e1e" text-anchor="start" style="white-space: pre;" direction="ltr" dominant-baseline="alphabetic">NoSQL - MongoDB</text></g><g stroke-linecap="round"><g transform="translate(2320.179952719773 575.7078407147358) rotate(270 82.52505157324299 0)"><path d="M0.94 0.79 C28.5 0.69, 137.71 -0.71, 165.12 -0.74 M-0.02 0.16 C27.41 0.21, 136.74 0.66, 164.22 0.4" stroke="#1e1e1e" stroke-width="2" fill="none"></path></g><g transform="translate(2320.179952719773 575.7078407147358) rotate(270 82.52505157324299 0)"><path d="M164.32 0.4 L151.1 7.82 L149.46 -6.18 L166.14 -1.17" stroke="none" stroke-width="0" fill="#1e1e1e" fill-rule="evenodd"></path><path d="M164.22 0.4 C161.38 2.39, 155.65 4.56, 150.63 6.76 M164.22 0.4 C158.74 2.16, 155.13 4.33, 150.63 6.76 M150.63 6.76 C149.96 1.59, 150.48 -1.62, 150.61 -5.91 M150.63 6.76 C151.07 2.68, 150.65 -1.82, 150.61 -5.91 M150.61 -5.91 C154.88 -2.43, 159.6 -0.28, 164.22 0.4 M150.61 -5.91 C154.3 -3.78, 159.65 -2.4, 164.22 0.4 M164.22 0.4 C164.22 0.4, 164.22 0.4, 164.22 0.4 M164.22 0.4 C164.22 0.4, 164.22 0.4, 164.22 0.4" stroke="#1e1e1e" stroke-width="2" fill="none"></path></g></g><mask></mask><g stroke-linecap="round"><g transform="translate(2427.738465023217 572.7778762742192) rotate(270 -85.03738191320576 0)"><path d="M0.07 -0.74 C-28.37 -0.77, -141.26 0.38, -169.7 0.61 M-1.35 1.48 C-29.99 1.03, -142.08 -0.72, -170.45 -1.19" stroke="#1e1e1e" stroke-width="2" fill="none"></path></g><g transform="translate(2427.738465023217 572.7778762742192) rotate(270 -85.03738191320576 0)"><path d="M-169.98 -0.14 L-157.9 -7.58 L-155.03 3.79 L-168.85 -0.14" stroke="none" stroke-width="0" fill="#1e1e1e" fill-rule="evenodd"></path><path d="M-170.45 -1.19 C-166.23 -3.05, -159.35 -6.42, -156.75 -7.31 M-170.45 -1.19 C-165.08 -3.86, -160.27 -4.88, -156.75 -7.31 M-156.75 -7.31 C-156.91 -3.48, -156.74 -1.54, -156.96 5.37 M-156.75 -7.31 C-156.73 -4.83, -156.5 -1.17, -156.96 5.37 M-156.96 5.37 C-162.2 4.49, -166.54 -0.41, -170.45 -1.19 M-156.96 5.37 C-159.77 3.19, -164.2 2.63, -170.45 -1.19 M-170.45 -1.19 C-170.45 -1.19, -170.45 -1.19, -170.45 -1.19 M-170.45 -1.19 C-170.45 -1.19, -170.45 -1.19, -170.45 -1.19" stroke="#1e1e1e" stroke-width="2" fill="none"></path></g></g><mask></mask><g transform="translate(1206.8242828092289 855.8195814189868) rotate(0 74.05196380615234 22.5)"><text x="0" y="31.536" font-family="Virgil, Segoe UI Emoji" font-size="36px" fill="#1e1e1e" text-anchor="start" style="white-space: pre;" direction="ltr" dominant-baseline="alphabetic">Message</text></g><g mask="url(#mask-KhFeu_Ld6CDlMMl01KM7i)" stroke-linecap="round"><g transform="translate(1115.8272198603506 665.4174986361156) rotate(0 163.616708279587 -57.508951329844365)"><path d="M-1.1 -0.45 C53.53 -19.85, 273.73 -96.5, 328.39 -115.6 M0.53 -1.72 C55.04 -21.04, 273.82 -95.7, 328.06 -114.38" stroke="#1e1e1e" stroke-width="2" fill="none"></path></g><g transform="translate(1115.8272198603506 665.4174986361156) rotate(0 163.616708279587 -57.508951329844365)"><path d="M327.36 -113.37 L319.08 -104.96 L312.56 -116.61 L329 -116.12" stroke="none" stroke-width="0" fill="#1e1e1e" fill-rule="evenodd"></path><path d="M328.06 -114.38 C323.76 -109.36, 319.78 -107.57, 317.25 -103.97 M328.06 -114.38 C325.51 -111.96, 321.75 -108.66, 317.25 -103.97 M317.25 -103.97 C316.33 -105.75, 316.2 -109.05, 313.14 -115.96 M317.25 -103.97 C316.26 -107.18, 315.57 -109.8, 313.14 -115.96 M313.14 -115.96 C317.34 -114.79, 321.18 -113.85, 328.06 -114.38 M313.14 -115.96 C315.85 -116.43, 318.66 -115.34, 328.06 -114.38 M328.06 -114.38 C328.06 -114.38, 328.06 -114.38, 328.06 -114.38 M328.06 -114.38 C328.06 -114.38, 328.06 -114.38, 328.06 -114.38" stroke="#1e1e1e" stroke-width="2" fill="none"></path></g></g><mask id="mask-KhFeu_Ld6CDlMMl01KM7i"><rect x="0" y="0" fill="#fff" width="1543.0606364195246" height="880.4354012958044"></rect><rect x="1200.3879589016562" y="585.4085473062712" fill="#000" width="158.1119384765625" height="45" opacity="1"></rect></mask><g transform="translate(1200.3879589016565 585.4085473062712) rotate(0 79.08695852681979 21.983947051316534)"><text x="79.05596923828125" y="31.536" font-family="Virgil, Segoe UI Emoji" font-size="36px" fill="#1e1e1e" text-anchor="middle" style="white-space: pre;" direction="ltr" dominant-baseline="alphabetic">send mp4</text></g><g transform="translate(1981.2977238034136 887.7263201017261) rotate(0 103.73396301269531 67.5)"><text x="103.73396301269531" y="31.536" font-family="Virgil, Segoe UI Emoji" font-size="36px" fill="#1e1e1e" text-anchor="middle" style="white-space: pre;" direction="ltr" dominant-baseline="alphabetic">confirmation</text><text x="103.73396301269531" y="76.536" font-family="Virgil, Segoe UI Emoji" font-size="36px" fill="#1e1e1e" text-anchor="middle" style="white-space: pre;" direction="ltr" dominant-baseline="alphabetic">+</text><text x="103.73396301269531" y="121.536" font-family="Virgil, Segoe UI Emoji" font-size="36px" fill="#1e1e1e" text-anchor="middle" style="white-space: pre;" direction="ltr" dominant-baseline="alphabetic">mp3 UID</text></g><g transform="translate(2009.8913036645831 743.2495669481856) rotate(0 67.42797088623047 22.5)"><text x="67.42797088623047" y="31.536" font-family="Virgil, Segoe UI Emoji" font-size="36px" fill="#1e1e1e" text-anchor="middle" style="white-space: pre;" direction="ltr" dominant-baseline="alphabetic">request</text></g><g stroke-linecap="round" transform="translate(1103.4642383447601 1147.3503510599664) rotate(0 152.58413428254005 68.9271155337824)"><path d="M32 0 C111.87 0.9, 191.79 1.03, 273.17 0 M32 0 C127.91 1.35, 223.47 1.34, 273.17 0 M273.17 0 C293.55 0.48, 306.1 11.57, 305.17 32 M273.17 0 C296.15 1.18, 304.93 12.2, 305.17 32 M305.17 32 C305.97 49.19, 306.12 63.01, 305.17 105.85 M305.17 32 C305.03 56.03, 306.11 80.1, 305.17 105.85 M305.17 105.85 C304.57 126.84, 293.63 136.49, 273.17 137.85 M305.17 105.85 C306.42 128.76, 296.76 139.94, 273.17 137.85 M273.17 137.85 C219.53 137.91, 164.33 136.68, 32 137.85 M273.17 137.85 C188.22 139.63, 103.49 138.35, 32 137.85 M32 137.85 C9.84 139.6, -1.43 128.46, 0 105.85 M32 137.85 C12.72 138.92, -0.75 129.23, 0 105.85 M0 105.85 C0.07 88.5, 0.7 68.07, 0 32 M0 105.85 C0.66 76.89, -0.15 46.63, 0 32 M0 32 C1.63 9.2, 11.67 1.52, 32 0 M0 32 C-0.1 9.76, 9.61 1.62, 32 0" stroke="#1971c2" stroke-width="4" fill="none"></path></g><g transform="translate(1136.5558341751516 1167.7782046329198) rotate(0 119.49253845214844 48.49926196082902)"><text x="119.49253845214844" y="33.988282782149" font-family="Virgil, Segoe UI Emoji" font-size="38.799409568663236px" fill="#1971c2" text-anchor="middle" style="white-space: pre;" direction="ltr" dominant-baseline="alphabetic">Notification </text><text x="119.49253845214844" y="82.48754474297805" font-family="Virgil, Segoe UI Emoji" font-size="38.799409568663236px" fill="#1971c2" text-anchor="middle" style="white-space: pre;" direction="ltr" dominant-baseline="alphabetic">service</text></g><g stroke-linecap="round"><g transform="translate(1454.0191100403606 900.1933216302564) rotate(0 -20.06009773128676 116.09524420232606)"><path d="M0.87 0.88 C-5.92 39.36, -34.45 192.81, -41.3 231.18 M-0.13 0.29 C-6.53 38.86, -32.38 193.59, -39.2 232.18" stroke="#1e1e1e" stroke-width="2" fill="none"></path></g><g transform="translate(1454.0191100403606 900.1933216302564) rotate(0 -20.06009773128676 116.09524420232606)"><path d="M-38.55 231 L-45.15 219.21 L-31.58 220.34 L-40.6 234.09" stroke="none" stroke-width="0" fill="#1e1e1e" fill-rule="evenodd"></path><path d="M-39.2 232.18 C-39.15 227.05, -42.52 224.7, -43.16 217.71 M-39.2 232.18 C-40.63 229.79, -40.97 226.66, -43.16 217.71 M-43.16 217.71 C-38.81 218.13, -33.12 220.07, -30.66 219.85 M-43.16 217.71 C-38.87 218.77, -33.64 219.03, -30.66 219.85 M-30.66 219.85 C-31.66 224.71, -35.79 227.25, -39.2 232.18 M-30.66 219.85 C-33.33 224.12, -37.49 228.9, -39.2 232.18 M-39.2 232.18 C-39.2 232.18, -39.2 232.18, -39.2 232.18 M-39.2 232.18 C-39.2 232.18, -39.2 232.18, -39.2 232.18" stroke="#1e1e1e" stroke-width="2" fill="none"></path></g></g><mask></mask><g mask="url(#mask-GNCNRGUYmlpQrLTNycLJF)" stroke-linecap="round"><g transform="translate(1086.1703517873423 1220.13139909835) rotate(0 -400.845640940042 -164.32670174929382)"><path d="M0.5 -1.14 C-133.29 -56.01, -668.76 -275, -802.29 -329.45 M-0.7 0.88 C-134.13 -53.83, -666.52 -273.22, -799.89 -328.33" stroke="#1e1e1e" stroke-width="2" fill="none"></path></g><g transform="translate(1086.1703517873423 1220.13139909835) rotate(0 -400.845640940042 -164.32670174929382)"><path d="M-800.74 -327.27 L-784.76 -329.56 L-791.1 -315.58 L-798.92 -327.17" stroke="none" stroke-width="0" fill="#1e1e1e" fill-rule="evenodd"></path><path d="M-799.89 -328.33 C-796.25 -329.38, -790.76 -327.63, -784.91 -329.01 M-799.89 -328.33 C-794.27 -328.13, -788.99 -328.53, -784.91 -329.01 M-784.91 -329.01 C-786.57 -326.82, -788.65 -322.53, -789.74 -317.29 M-784.91 -329.01 C-787.32 -324.92, -789.19 -320.27, -789.74 -317.29 M-789.74 -317.29 C-793.58 -321.96, -798.11 -326.4, -799.89 -328.33 M-789.74 -317.29 C-792.4 -319.77, -794.55 -321.91, -799.89 -328.33 M-799.89 -328.33 C-799.89 -328.33, -799.89 -328.33, -799.89 -328.33 M-799.89 -328.33 C-799.89 -328.33, -799.89 -328.33, -799.89 -328.33" stroke="#1e1e1e" stroke-width="2" fill="none"></path></g></g><mask id="mask-GNCNRGUYmlpQrLTNycLJF"><rect x="0" y="0" fill="#fff" width="1987.8616336674263" height="1648.7848025969374"></rect><rect x="528.3827705396832" y="1010.8046973490559" fill="#000" width="313.8838806152344" height="90" opacity="1"></rect></mask><g transform="translate(528.382770539683 1010.8046973490559) rotate(0 156.89008790329092 45.04170656269878)"><text x="156.9419403076172" y="31.536" font-family="Virgil, Segoe UI Emoji" font-size="36px" fill="#1e1e1e" text-anchor="middle" style="white-space: pre;" direction="ltr" dominant-baseline="alphabetic">Email confirmation</text><text x="156.9419403076172" y="76.536" font-family="Virgil, Segoe UI Emoji" font-size="36px" fill="#1e1e1e" text-anchor="middle" style="white-space: pre;" direction="ltr" dominant-baseline="alphabetic">with mp3 UID</text></g><g mask="url(#mask-yNRYsTxBJcHo6pS3CB04o)" stroke-linecap="round"><g transform="translate(705.7967235168373 872.9572761794453) rotate(0 -196.32561650689092 -2.041824252452841)"><path d="M-0.31 0.61 C-65.65 0.02, -326.97 -2.35, -392.37 -3.28 M1.73 -0.12 C-63.72 -1.07, -327.3 -4.32, -393.18 -4.98" stroke="#1e1e1e" stroke-width="2" fill="none"></path></g><g transform="translate(705.7967235168373 872.9572761794453) rotate(0 -196.32561650689092 -2.041824252452841)"><path d="M-391.21 -3.47 L-381.19 -10.66 L-381.65 2.34 L-394.9 -6.45" stroke="none" stroke-width="0" fill="#1e1e1e" fill-rule="evenodd"></path><path d="M-393.18 -4.98 C-388.69 -6.29, -384.7 -8.41, -379.51 -11.16 M-393.18 -4.98 C-390.36 -6.69, -387.28 -7.94, -379.51 -11.16 M-379.51 -11.16 C-378.89 -7.24, -379.37 -3.68, -379.66 1.51 M-379.51 -11.16 C-379.07 -8.62, -379.32 -6.51, -379.66 1.51 M-379.66 1.51 C-384.29 0.82, -387.73 -1.54, -393.18 -4.98 M-379.66 1.51 C-383.59 -1.29, -388.49 -2.14, -393.18 -4.98 M-393.18 -4.98 C-393.18 -4.98, -393.18 -4.98, -393.18 -4.98 M-393.18 -4.98 C-393.18 -4.98, -393.18 -4.98, -393.18 -4.98" stroke="#1e1e1e" stroke-width="2" fill="none"></path></g></g><mask id="mask-yNRYsTxBJcHo6pS3CB04o"><rect x="0" y="0" fill="#fff" width="1198.4479565306192" height="977.040924684351"></rect><rect x="399.4011607208838" y="848.4154519269927" fill="#000" width="220.139892578125" height="45" opacity="1"></rect></mask><g transform="translate(399.4011607208839 848.4154519269927) rotate(0 110.66987670733596 22.35502983138423)"><text x="110.0699462890625" y="31.536" font-family="Virgil, Segoe UI Emoji" font-size="36px" fill="#1e1e1e" text-anchor="middle" style="white-space: pre;" direction="ltr" dominant-baseline="alphabetic">retrieve mp3</text></g><g mask="url(#mask-ZGyL6sYOz7J2z1jKz_3Kz)" stroke-linecap="round"><g transform="translate(1440.1852679380556 669.8085939584209) rotate(0 -146.83965639924793 47.08666765374636)"><path d="M-0.69 -0.44 C-49.83 15.13, -245.09 77.97, -293.88 93.74 M1.14 -1.72 C-48.24 13.99, -245.74 78.85, -294.94 95.05" stroke="#1e1e1e" stroke-width="2" fill="none"></path></g><g transform="translate(1440.1852679380556 669.8085939584209) rotate(0 -146.83965639924793 47.08666765374636)"><path d="M-294.67 95.56 L-283.62 85.25 L-280.03 97.71 L-295.39 93.53" stroke="none" stroke-width="0" fill="#1e1e1e" fill-rule="evenodd"></path><path d="M-294.94 95.05 C-291.41 91, -287.3 87.71, -284 84.78 M-294.94 95.05 C-292.03 92.05, -287.82 88.94, -284 84.78 M-284 84.78 C-282.7 88.47, -281.78 90.19, -280.05 96.83 M-284 84.78 C-282.77 88.64, -281.57 92.28, -280.05 96.83 M-280.05 96.83 C-286.06 97.4, -289.09 95.54, -294.94 95.05 M-280.05 96.83 C-284.63 97.13, -287.88 96.36, -294.94 95.05 M-294.94 95.05 C-294.94 95.05, -294.94 95.05, -294.94 95.05 M-294.94 95.05 C-294.94 95.05, -294.94 95.05, -294.94 95.05" stroke="#1e1e1e" stroke-width="2" fill="none"></path></g></g><mask id="mask-ZGyL6sYOz7J2z1jKz_3Kz"><rect x="0" y="0" fill="#fff" width="1833.8645807365515" height="946.8085939584209"></rect><rect x="1230.2196273469133" y="671.8952616121674" fill="#000" width="126.25196838378906" height="90" opacity="1"></rect></mask><g transform="translate(1230.219627346913 671.8952616121674) rotate(0 63.06649319562143 44.580118894698046)"><text x="63.12598419189453" y="31.536" font-family="Virgil, Segoe UI Emoji" font-size="36px" fill="#1e1e1e" text-anchor="middle" style="white-space: pre;" direction="ltr" dominant-baseline="alphabetic">return </text><text x="63.12598419189453" y="76.536" font-family="Virgil, Segoe UI Emoji" font-size="36px" fill="#1e1e1e" text-anchor="middle" style="white-space: pre;" direction="ltr" dominant-baseline="alphabetic">mp3</text></g><g transform="translate(2252.726242904676 547.428535094897) rotate(0 31.787986755371094 22.5)"><text x="31.787986755371094" y="31.536" font-family="Virgil, Segoe UI Emoji" font-size="36px" fill="#1e1e1e" text-anchor="middle" style="white-space: pre;" direction="ltr" dominant-baseline="alphabetic">mp4</text></g><g transform="translate(2419.7377377699527 548.9865185495102) rotate(0 32.52598571777344 22.5)"><text x="32.52598571777344" y="31.536" font-family="Virgil, Segoe UI Emoji" font-size="36px" fill="#1e1e1e" text-anchor="middle" style="white-space: pre;" direction="ltr" dominant-baseline="alphabetic">mp3</text></g><g transform="translate(1456.318947142761 990.5631755322638) rotate(0 103.73396301269531 45)"><text x="103.73396301269531" y="31.536" font-family="Virgil, Segoe UI Emoji" font-size="36px" fill="#1e1e1e" text-anchor="middle" style="white-space: pre;" direction="ltr" dominant-baseline="alphabetic">confirmation</text><text x="103.73396301269531" y="76.536" font-family="Virgil, Segoe UI Emoji" font-size="36px" fill="#1e1e1e" text-anchor="middle" style="white-space: pre;" direction="ltr" dominant-baseline="alphabetic">Notificaion</text></g><g mask="url(#mask-stKumEhorKGE-PRXRehNd)" stroke-linecap="round"><g transform="translate(1920.1244748399163 424.7703404653883) rotate(0 161.3719906361041 -56.95712297077446)"><path d="M-0.45 0.67 C53.33 -18.4, 268.39 -95.98, 322.34 -115.07 M1.52 -0.02 C55.12 -18.94, 267.64 -95.4, 321.18 -114.15" stroke="#1e1e1e" stroke-width="2" fill="none"></path></g><g transform="translate(1920.1244748399163 424.7703404653883) rotate(0 161.3719906361041 -56.95712297077446)"><path d="M322.35 -115.33 L311.19 -102.7 L306.92 -115.26 L321.71 -114.42" stroke="none" stroke-width="0" fill="#1e1e1e" fill-rule="evenodd"></path><path d="M321.18 -114.15 C319.03 -111.81, 313.81 -107.8, 310.49 -103.62 M321.18 -114.15 C318.09 -110.63, 314.29 -107.79, 310.49 -103.62 M310.49 -103.62 C310.93 -105.72, 307.94 -108.61, 306.24 -115.56 M310.49 -103.62 C308.8 -106.84, 308.21 -110.74, 306.24 -115.56 M306.24 -115.56 C313.06 -113.9, 316.44 -113.3, 321.18 -114.15 M306.24 -115.56 C309.45 -114.59, 312.58 -115.13, 321.18 -114.15 M321.18 -114.15 C321.18 -114.15, 321.18 -114.15, 321.18 -114.15 M321.18 -114.15 C321.18 -114.15, 321.18 -114.15, 321.18 -114.15" stroke="#1e1e1e" stroke-width="2" fill="none"></path></g></g><mask id="mask-stKumEhorKGE-PRXRehNd"><rect x="0" y="0" fill="#fff" width="2342.8684561121245" height="638.6845864069372"></rect><rect x="2002.440496237739" y="345.31321749461375" fill="#000" width="158.1119384765625" height="45" opacity="1"></rect></mask><g transform="translate(2002.4404962377394 345.3132174946138) rotate(0 78.62837824746953 22.255282533913885)"><text x="79.05596923828125" y="31.536" font-family="Virgil, Segoe UI Emoji" font-size="36px" fill="#1e1e1e" text-anchor="middle" style="white-space: pre;" direction="ltr" dominant-baseline="alphabetic">send mp4</text></g><g mask="url(#mask-sMmykdg2DwzWxIcLFaPgc)" stroke-linecap="round"><g transform="translate(2243.3261198492423 421.7519705847328) rotate(0 -156.77590568489472 55.807082014526145)"><path d="M0.59 0.62 C-51.66 18.92, -261.42 92.23, -313.67 110.54 M-0.56 -0.11 C-52.96 18.24, -262.55 92.97, -314.69 111.51" stroke="#1e1e1e" stroke-width="2" fill="none"></path></g><g transform="translate(2243.3261198492423 421.7519705847328) rotate(0 -156.77590568489472 55.807082014526145)"><path d="M-315.59 111.46 L-304.79 102.79 L-301.46 113.92 L-312.69 112.31" stroke="none" stroke-width="0" fill="#1e1e1e" fill-rule="evenodd"></path><path d="M-314.69 111.51 C-310.95 108.32, -310.03 106.24, -304.01 100.98 M-314.69 111.51 C-312.84 109.5, -310.09 106.7, -304.01 100.98 M-304.01 100.98 C-302.55 105.08, -301.57 108.56, -299.75 112.93 M-304.01 100.98 C-302.67 103.73, -301.11 107.49, -299.75 112.93 M-299.75 112.93 C-303.62 112.37, -307.73 111.43, -314.69 111.51 M-299.75 112.93 C-304.67 112.63, -310.36 112.31, -314.69 111.51 M-314.69 111.51 C-314.69 111.51, -314.69 111.51, -314.69 111.51 M-314.69 111.51 C-314.69 111.51, -314.69 111.51, -314.69 111.51" stroke="#1e1e1e" stroke-width="2" fill="none"></path></g></g><mask id="mask-sMmykdg2DwzWxIcLFaPgc"><rect x="0" y="0" fill="#fff" width="2656.877931219032" height="633.3661346137851"></rect><rect x="1998.3322499919836" y="432.55905259925896" fill="#000" width="176.43592834472656" height="90" opacity="1"></rect></mask><g transform="translate(1998.332249991984 432.55905259925896) rotate(0 87.94545682735293 44.896682478496814)"><text x="88.21796417236328" y="31.536" font-family="Virgil, Segoe UI Emoji" font-size="36px" fill="#1e1e1e" text-anchor="middle" style="white-space: pre;" direction="ltr" dominant-baseline="alphabetic">fetch mp3</text><text x="88.21796417236328" y="76.536" font-family="Virgil, Segoe UI Emoji" font-size="36px" fill="#1e1e1e" text-anchor="middle" style="white-space: pre;" direction="ltr" dominant-baseline="alphabetic">by UID</text></g><g stroke-linecap="round" transform="translate(10 10) rotate(0 1353.3333333333333 726.6666666666665)"><path d="M32 0 C573.92 0, 1115.85 0, 2674.67 0 M32 0 C1046.11 0, 2060.21 0, 2674.67 0 M2674.67 0 C2696 0, 2706.67 10.67, 2706.67 32 M2674.67 0 C2696 0, 2706.67 10.67, 2706.67 32 M2706.67 32 C2706.67 413.34, 2706.67 794.69, 2706.67 1421.33 M2706.67 32 C2706.67 491.98, 2706.67 951.95, 2706.67 1421.33 M2706.67 1421.33 C2706.67 1442.67, 2696 1453.33, 2674.67 1453.33 M2706.67 1421.33 C2706.67 1442.67, 2696 1453.33, 2674.67 1453.33 M2674.67 1453.33 C1960.79 1453.33, 1246.91 1453.33, 32 1453.33 M2674.67 1453.33 C1683.9 1453.33, 693.13 1453.33, 32 1453.33 M32 1453.33 C10.67 1453.33, 0 1442.67, 0 1421.33 M32 1453.33 C10.67 1453.33, 0 1442.67, 0 1421.33 M0 1421.33 C0 960.39, 0 499.44, 0 32 M0 1421.33 C0 886.47, 0 351.6, 0 32 M0 32 C0 10.67, 10.67 0, 32 0 M0 32 C0 10.67, 10.67 0, 32 0" stroke="#f08c00" stroke-width="4" fill="none"></path></g></svg>